<svg xmlns="http://www.w3.org/2000/svg" xmlns:xlink="http://www.w3.org/1999/xlink" viewBox="0 0 1280 360"><defs><style>.cls-1{isolation:isolate;}.cls-2{fill:url(#linear-gradient);}.cls-3{fill:url(#Безымянный_градиент_3);}.cls-4{fill:url(#linear-gradient-2);}.cls-5{fill:url(#linear-gradient-3);}.cls-6{fill:url(#linear-gradient-4);}.cls-7{fill:url(#linear-gradient-5);}.cls-8{fill:url(#linear-gradient-6);}.cls-9{fill:url(#linear-gradient-7);}.cls-10{opacity:0.7;mix-blend-mode:screen;}.cls-11{fill:url(#linear-gradient-8);}.cls-12{fill:url(#linear-gradient-9);}.cls-13{fill:url(#linear-gradient-10);}.cls-14{fill:url(#linear-gradient-11);}.cls-15{fill:url(#linear-gradient-12);}.cls-16{fill:url(#linear-gradient-13);}.cls-17{fill:url(#linear-gradient-14);}.cls-18{fill:url(#linear-gradient-15);}</style><linearGradient id="linear-gradient" x1="121" y1="279.17" x2="121" y2="82.83" gradientUnits="userSpaceOnUse"><stop offset="0" stop-color="#06b9df"/><stop offset="0.34" stop-color="#0b88bc"/><stop offset="0.65" stop-color="#0e82b8"/><stop offset="0.96" stop-color="#01415c"/></linearGradient><linearGradient id="Безымянный_градиент_3" x1="619.1" y1="76.7" x2="619.1" y2="7" gradientUnits="userSpaceOnUse"><stop offset="0" stop-color="#06b9df"/><stop offset="0.34" stop-color="#0b88bc"/><stop offset="0.65" stop-color="#0e82b8"/><stop offset="1" stop-color="#01415c"/></linearGradient><linearGradient id="linear-gradient-2" x1="284.83" y1="279.17" x2="284.83" y2="7" gradientUnits="userSpaceOnUse"><stop offset="0" stop-color="#e6e6e6"/><stop offset="0.45" stop-color="#f2f2f2"/><stop offset="1" stop-color="#ccc"/></linearGradient><linearGradient id="linear-gradient-3" x1="421.46" y1="355" x2="421.46" y2="82.83" xlink:href="#linear-gradient-2"/><linearGradient id="linear-gradient-4" x1="589.41" y1="279.17" x2="589.41" y2="82.83" xlink:href="#linear-gradient-2"/><linearGradient id="linear-gradient-5" x1="744.86" y1="279.17" x2="744.86" y2="82.83" xlink:href="#linear-gradient-2"/><linearGradient id="linear-gradient-6" x1="970.18" y1="279.17" x2="970.18" y2="82.83" xlink:href="#linear-gradient-2"/><linearGradient id="linear-gradient-7" x1="1167.83" y1="279.17" x2="1167.83" y2="82.83" xlink:href="#linear-gradient-2"/><linearGradient id="linear-gradient-8" x1="132.61" y1="174.18" x2="132.61" y2="91.74" gradientUnits="userSpaceOnUse"><stop offset="0" stop-color="#fff"/><stop offset="0.74"/></linearGradient><linearGradient id="linear-gradient-9" x1="293.87" y1="186.64" x2="293.87" y2="15.9" xlink:href="#linear-gradient-8"/><linearGradient id="linear-gradient-10" x1="438.38" y1="204.02" x2="438.38" y2="91.74" xlink:href="#linear-gradient-8"/><linearGradient id="linear-gradient-11" x1="618.32" y1="70.28" x2="618.32" y2="15.9" xlink:href="#linear-gradient-8"/><linearGradient id="linear-gradient-12" x1="595.78" y1="205.92" x2="595.78" y2="91.74" xlink:href="#linear-gradient-8"/><linearGradient id="linear-gradient-13" x1="754.24" y1="202.37" x2="754.24" y2="91.74" xlink:href="#linear-gradient-8"/><linearGradient id="linear-gradient-14" x1="974.61" y1="196.44" x2="974.61" y2="91.74" xlink:href="#linear-gradient-8"/><linearGradient id="linear-gradient-15" x1="1178.58" y1="163.51" x2="1178.58" y2="91.74" xlink:href="#linear-gradient-8"/></defs><title>elpi_logoLight</title><g class="cls-1"><g id="Layer_1" data-name="Layer 1"><path class="cls-2" d="M164.2,158H91.12l-9.18,45.38H218.08l16.3-77.27a72.26,72.26,0,0,0,1.6-14.81c0-9.19-2.86-16.36-8.51-21.32-5.44-4.78-13.47-7.1-24.55-7.1H80.58c-15.07,0-26.53,3.59-34,10.67-7.21,6.79-12.36,17.15-15.3,30.83L8,234.58A81.65,81.65,0,0,0,6,250c0,9.84,3.22,17.35,9.55,22.31,5.85,4.58,14.6,6.82,26.73,6.82H223.14l11.79-56.47H75.28c.08-.46.17-.95.27-1.45L92.34,143.4a19.83,19.83,0,0,1,1.22-3.86,16.05,16.05,0,0,1,3.12-.24h71.61a2.32,2.32,0,0,1,0,.34Z"/><polygon class="cls-3" points="659.49 7 593.38 7 578.71 76.7 644.81 76.7 659.49 7"/><polygon class="cls-4" points="280.76 7 223.14 279.17 288.89 279.17 346.51 7 280.76 7"/><path class="cls-5" d="M548.25,112.32c0-9.74-3.09-17.26-9.19-22.34-5.77-4.81-14.63-7.15-27.09-7.15H352.66L294.67,355h65.75l45.43-212.48h71.56a9.86,9.86,0,0,1-.12,1.1L461.58,216.8a17,17,0,0,1-1.28,3.86,11.57,11.57,0,0,1-2.7.25H391.27l-12.14,58.26h94.56c13.17,0,24.11-3.39,32.5-10.08s14.22-17.28,17.22-31.42l23.25-110.18A74.53,74.53,0,0,0,548.25,112.32Z"/><polygon class="cls-6" points="577.29 82.83 535.78 279.17 601.53 279.17 643.04 82.83 577.29 82.83"/><path class="cls-7" d="M720.11,139a10.49,10.49,0,0,1,3.26-.37H853l11.84-55.76h-159c-14.67,0-25.44,3.13-32.9,9.55-7.26,6.25-12.2,15.7-14.67,28l-10,48.15a40.71,40.71,0,0,0-1.26,9.57c0,7.67,2.83,14.18,8.18,18.84,5.18,4.52,12.62,6.71,22.74,6.71h95.85l-3.55,16.13a14.3,14.3,0,0,1-.67,2.36,16.84,16.84,0,0,1-2.56.16H636.64l-11.76,56.83H785.25c14.68,0,25.44-3.13,32.9-9.55,7.22-6.2,12.26-15.6,15-28l10.76-50.2c.27-1.42.49-2.85.64-4.31s.22-2.91.22-4.33a24.76,24.76,0,0,0-8.08-18.93c-5.21-4.7-12.8-7-23.2-7h-97.6l3.17-14.8A9.61,9.61,0,0,1,720.11,139Z"/><path class="cls-8" d="M1087,112c0-9.79-3.13-17.27-9.3-22.24-5.75-4.63-14.58-6.89-27-6.89H927.61c-14.83,0-26.17,3.59-33.69,10.67-7.21,6.79-12.35,17.15-15.3,30.83L855.35,234.58A82.23,82.23,0,0,0,853.42,250c0,9.84,3.21,17.35,9.55,22.31,5.85,4.58,14.48,6.82,26.37,6.82h123c15.08,0,26.53-3.59,34.05-10.67,7.2-6.78,12.35-17.14,15.31-30.83L1085,127.42A82.12,82.12,0,0,0,1087,112Zm-71,30.31L1000.58,216a8,8,0,0,1-1,2.85s-1.11.65-4.75.65H924.29l0-.13,15.5-74.22a16,16,0,0,1,.9-3.42,13.28,13.28,0,0,1,3-.26h70.83c.62,0,1.14,0,1.58.06C1016.07,141.74,1016,142,1016,142.27Z"/><path class="cls-9" d="M1200.54,82.83a49.65,49.65,0,0,0-22.68,5l1.08-5h-64.38L1073,279.17h65.76l28.07-133.62a12.12,12.12,0,0,1,1.31-3.66,9.37,9.37,0,0,1,3.39-.44H1250l12.6-58.62Z"/><g class="cls-10"><path class="cls-11" d="M227.53,112.49q0-10.38-5.9-15.56t-19.5-5.19H79.8q-19.68,0-28.8,8.58T38,127.15l-.27,1.25c14,5.47,29.41,10.72,46.14,15.73l.27-1.24c1-4,2.15-6.73,3.58-8s4.17-2,8.23-2h71.89c2.87,0,4.83.35,5.91,1.07s1.61,2,1.61,3.93a25.18,25.18,0,0,1-.36,4.65l-5.07,23q22.13,4.56,46,8.68l10.23-48.46A64.4,64.4,0,0,0,227.53,112.49Z"/><path class="cls-12" d="M286.19,15.9l-34.72,164q23.66,3.57,48.66,6.7L336.27,15.9Z"/><path class="cls-13" d="M539.8,113.56q0-11.09-6.43-16.46t-22.18-5.36H358.09L337,190.94q24.07,2.59,49.17,4.78l12.75-59.63h78q4.29,0,5.9,1.26t1.61,4.47a24.34,24.34,0,0,1-.36,4.65l-11.86,55.28q24.67,1.33,50,2.27l16.22-76.87A66.06,66.06,0,0,0,539.8,113.56Z"/><polygon class="cls-14" points="587.38 70.28 637.81 70.28 649.26 15.9 598.82 15.9 587.38 70.28"/><path class="cls-15" d="M582.73,91.74l-24,113.39q24.71.6,49.91.79L632.81,91.74Z"/><path class="cls-16" d="M836.16,187.6a35.56,35.56,0,0,0,.18-3.57c0-5.49-1.85-9.89-5.55-13.24s-9.72-5-18.06-5h-98q-7.51,0-7.51-5.72a10.88,10.88,0,0,1,.35-3.22l3.22-15q1.08-5.37,3.58-7.51t8.23-2.15H846l8.58-40.42H705.06q-19,0-27.9,7.69T665,123.22l-10,48.29a32.94,32.94,0,0,0-1.07,7.87q0,8.24,5.54,13.05t17.71,4.83H774.1c4.76,0,7.15,1.56,7.15,4.65,0,.17,0,.3,0,.46Q808,201,833.9,199.25l1.72-8.07C835.86,190,836,188.8,836.16,187.6Z"/><path class="cls-17" d="M1078.5,113.2q0-11.08-6.44-16.27t-22.17-5.19H926.83q-19.3,0-28.43,8.58t-13.06,26.83l-14.62,69.29q26-2.17,51-4.81L931.48,145q1.08-6.09,3.4-8t8-2h70.83q9.66,0,9.66,5.73a35.23,35.23,0,0,1-.72,4.29l-7.23,34.65q26.92-4.09,52-8.74l9.24-43.8A76.35,76.35,0,0,0,1078.5,113.2Z"/><path class="cls-18" d="M1199.76,91.74q-11.79,0-20.21,4.65t-15.2,15l4.29-19.67H1120l-15.18,71.77q27.81-6,52.57-12.58l1.24-5.89q1.42-6.09,4.11-8t8-2h38.83q19.89-6.95,36.52-14.38l6.21-28.9Z"/></g></g></g></svg>